<?xml version="1.0" standalone="no"?>
<!DOCTYPE svg PUBLIC "-//W3C//DTD SVG 20010904//EN"
<svg version="1.0" xmlns="http://www.w3.org/2000/svg"
 width="259.000000pt" height="260.000000pt" viewBox="0 0 259.000000 260.000000"
 preserveAspectRatio="xMidYMid meet">

<g transform="translate(0.000000,260.000000) scale(0.100000,-0.100000)"
fill="#000000" stroke="none">
<path d="M1155 2484 c-378 -84 -639 -428 -611 -805 15 -195 87 -377 304 -764
390 -696 457 -815 463 -815 3 0 21 28 39 62 19 35 161 287 316 562 156 274
297 531 313 570 123 296 131 558 23 771 -104 206 -288 355 -505 409 -98 25
-256 29 -342 10z m270 -189 c191 -40 358 -182 425 -363 81 -215 29 -446 -182
-812 -30 -52 -121 -215 -203 -362 -82 -148 -152 -268 -155 -268 -5 0 -45 71
-342 604 -135 242 -184 355 -219 501 -61 260 66 531 304 649 122 60 247 77
372 51z"/>
<path d="M1170 2141 c-66 -21 -150 -68 -150 -85 0 -13 40 -159 45 -164 11 -12
57 33 140 138 52 66 95 122 95 125 0 11 -78 3 -130 -14z"/>
<path d="M1256 2045 c-49 -64 -108 -133 -132 -153 l-44 -38 16 -42 c10 -23 20
-42 25 -42 4 0 31 16 60 36 125 85 355 174 451 174 40 0 40 12 2 52 -57 61
-198 128 -269 128 -15 0 -46 -33 -109 -115z"/>
<path d="M943 1983 c-54 -69 -91 -152 -73 -163 34 -21 176 30 166 60 -3 8 -13
43 -23 77 -10 34 -21 65 -25 68 -3 4 -24 -15 -45 -42z"/>
<path d="M1688 1965 c-3 -3 -34 -10 -69 -16 -127 -19 -280 -80 -416 -165 -73
-45 -73 -45 -59 -72 32 -61 35 -62 96 -46 30 7 79 14 108 14 60 0 264 -39 357
-69 70 -22 73 -20 74 65 1 72 -14 146 -46 218 -29 67 -37 79 -45 71z"/>
<path d="M991 1808 c-24 -11 -66 -21 -92 -22 l-49 -1 -6 -45 c-6 -40 9 -177
21 -189 3 -2 33 22 67 55 35 33 84 77 111 99 l47 41 -16 42 c-10 23 -22 42
-28 41 -6 0 -31 -10 -55 -21z"/>
<path d="M1014 1641 c-44 -38 -93 -85 -108 -105 l-27 -36 20 -38 c19 -37 152
-172 170 -172 5 0 4 19 -1 43 -13 55 -4 167 17 209 10 18 29 45 43 61 l26 27
-21 37 c-12 21 -25 39 -30 40 -4 2 -44 -28 -89 -66z"/>
<path d="M1250 1639 c-19 -6 -38 -14 -43 -18 -21 -21 165 -239 269 -315 l47
-33 43 28 c23 16 65 55 94 86 53 58 107 160 93 174 -5 5 -71 25 -148 44 -151
39 -293 53 -355 34z"/>
<path d="M1148 1583 c-41 -47 -53 -87 -52 -178 1 -123 10 -140 79 -161 97 -28
263 -20 298 15 5 5 -13 24 -42 45 -63 47 -157 149 -213 232 -24 35 -46 64 -49
64 -3 0 -13 -8 -21 -17z"/>
</g>
</svg>
